<svg width="16" height="16" viewBox="0 0 16 16" fill="none" xmlns="http://www.w3.org/2000/svg">
<path d="M7.375 11.8167H8.625V8.27502H12.1667V7.02502H8.625V3.48336H7.375V7.02502H3.83333V8.27502H7.375V11.8167ZM1.75 15.15C1.41667 15.15 1.125 15.025 0.875 14.775C0.625 14.525 0.5 14.2334 0.5 13.9V1.40002C0.5 1.06669 0.625 0.775024 0.875 0.525024C1.125 0.275024 1.41667 0.150024 1.75 0.150024H14.25C14.5833 0.150024 14.875 0.275024 15.125 0.525024C15.375 0.775024 15.5 1.06669 15.5 1.40002V13.9C15.5 14.2334 15.375 14.525 15.125 14.775C14.875 15.025 14.5833 15.15 14.25 15.15H1.75ZM1.75 13.9H14.25V1.40002H1.75V13.9ZM1.75 1.40002V13.9V1.40002Z" fill="white"/>
</svg>
