<svg width="24" height="24" viewBox="0 0 24 24" fill="none" xmlns="http://www.w3.org/2000/svg">
<path fill-rule="evenodd" clip-rule="evenodd" d="M3.45 20.55C3.75 20.85 4.1 21 4.5 21H19.5C19.9 21 20.25 20.85 20.55 20.55C20.85 20.25 21 19.9 21 19.5V4.5C21 4.1 20.85 3.75 20.55 3.45C20.25 3.15 19.9 3 19.5 3H4.5C4.1 3 3.75 3.15 3.45 3.45C3.15 3.75 3 4.1 3 4.5V19.5C3 19.9 3.15 20.25 3.45 20.55ZM19.5 19.5H4.5V4.5H19.5V19.5Z" fill="#224DFF"/>
<path fill-rule="evenodd" clip-rule="evenodd" d="M4.5 19.5H19.5V4.5H4.5V19.5ZM17.7 8.75L10.475 15.975L6.425 11.925L7.5 10.85L10.475 13.825L16.625 7.675L17.7 8.75Z" fill="#224DFF"/>
</svg>
